<?xml version="1.0" encoding="UTF-8" standalone="no"?>
<!-- Created with Inkscape (http://www.inkscape.org/) -->

<svg
   width="200mm"
   height="200mm"
   viewBox="0 0 200 200"
   version="1.1"
   id="svg5"
   inkscape:version="1.2-dev (25cba68356, 2021-05-16, custom)"
   sodipodi:docname="felflame-logo.svg"
   inkscape:export-filename="/home/tradam/Documents/felflame-logo.png"
   inkscape:export-xdpi="88.900002"
   inkscape:export-ydpi="88.900002"
   xmlns:inkscape="http://www.inkscape.org/namespaces/inkscape"
   xmlns:sodipodi="http://sodipodi.sourceforge.net/DTD/sodipodi-0.dtd"
   xmlns="http://www.w3.org/2000/svg"
   xmlns:svg="http://www.w3.org/2000/svg">
  <sodipodi:namedview
     id="namedview7"
     pagecolor="#505050"
     bordercolor="#eeeeee"
     borderopacity="1"
     inkscape:pageshadow="0"
     inkscape:pageopacity="0"
     inkscape:pagecheckerboard="0"
     inkscape:document-units="mm"
     showgrid="false"
     showborder="true"
     inkscape:object-paths="true"
     inkscape:snap-smooth-nodes="false"
     inkscape:zoom="1"
     inkscape:cx="245.5"
     inkscape:cy="317.5"
     inkscape:window-width="1682"
     inkscape:window-height="1078"
     inkscape:window-x="338"
     inkscape:window-y="1518"
     inkscape:window-maximized="0"
     inkscape:current-layer="g7470"
     fit-margin-top="0"
     fit-margin-left="0"
     fit-margin-right="0"
     fit-margin-bottom="0" />
  <defs
     id="defs2" />
  <g
     inkscape:label="Layer 1"
     inkscape:groupmode="layer"
     id="layer1"
     transform="translate(24.814804,26.407173)">
    <g
       id="g5942"
       transform="matrix(0.7150444,0,0,0.7150444,7.9079079,19.106173)"
       style="fill:#005522" />
    <g
       id="g7470"
       transform="translate(45.740503,25.047998)">
      <ellipse
         style="font-variation-settings:normal;opacity:1;vector-effect:none;fill:#1c241c;fill-opacity:0.69999999;fill-rule:evenodd;stroke:none;stroke-width:1.24602;stroke-linecap:butt;stroke-linejoin:miter;stroke-miterlimit:7.2;stroke-dasharray:none;stroke-dashoffset:3.8766;stroke-opacity:1;paint-order:normal;stop-color:#000000;stop-opacity:1"
         id="path6921"
         ry="11.676038"
         rx="54.259499"
         cy="111.82079"
         cx="29.444693" />
      <g
         id="g5900"
         transform="matrix(0.94670406,0,0,0.94670406,-1.3225283,-1.4073951)">
        <path
           id="path846"
           style="font-variation-settings:normal;opacity:1;vector-effect:none;fill:#00ff66;fill-opacity:1;fill-rule:evenodd;stroke:none;stroke-width:4.79999;stroke-linecap:butt;stroke-linejoin:miter;stroke-miterlimit:7.2;stroke-dasharray:none;stroke-dashoffset:3.8766;stroke-opacity:1;paint-order:normal;stop-color:#000000;stop-opacity:1"
           d="m 48.043994,-26.407173 c -35.640626,21.8403454 -59.4465,56.770237 -59.4465,101.334381 3e-5,44.723632 35.927436,44.724922 44.724917,44.724922 8.797481,0 44.72492,-0.0806 44.72492,-44.724922 0,-43.365499 -48.544546,-56.571942 -30.003337,-101.334381 z"
           sodipodi:nodetypes="cczcc" />
        <path
           id="path4245"
           style="font-variation-settings:normal;opacity:1;vector-effect:none;fill:#00d455;fill-opacity:1;fill-rule:evenodd;stroke:none;stroke-width:18.1417;stroke-linecap:butt;stroke-linejoin:miter;stroke-miterlimit:7.2;stroke-dasharray:none;stroke-dashoffset:3.8766;stroke-opacity:1;paint-order:normal;stop-color:#000000;stop-opacity:1"
           d="M 181.58398,-99.806641 C 46.879256,-17.260453 -43.095703,114.75804 -43.095703,283.18945 c 1.13e-4,169.0342 135.78874,169.03907 169.039063,169.03907 3.33332,0 7.73446,-0.012 12.88867,-0.1875 -46.385395,-1.56991 -155.927631,-17.00003 -155.927733,-168.85157 0,-153.77238 79.303367,-290.0927365 194.863233,-373.226336 3.81607,-9.769753 0,0 3.81645,-9.769755 z"
           transform="scale(0.26458333)"
           sodipodi:nodetypes="ccscccc" />
      </g>
      <g
         id="g5904"
         transform="matrix(0.94111257,0,0,0.94111257,3.0800803,7.5916104)">
        <path
           id="path846-3"
           style="font-variation-settings:normal;vector-effect:none;fill:#000000;fill-opacity:1;fill-rule:evenodd;stroke:none;stroke-width:3.61297;stroke-linecap:butt;stroke-linejoin:miter;stroke-miterlimit:7.2;stroke-dasharray:none;stroke-dashoffset:3.8766;stroke-opacity:1;paint-order:normal;stop-color:#000000"
           d="M 52.149066,-3.2818086 C 70.471317,22.295981 76.75521,53.486612 63.710707,84.389882 56.651708,101.11305 36.733365,109.54332 19.604384,102.31307 2.4754112,95.082796 -5.5490668,75.335735 1.6811862,58.206753 14.374829,28.134691 51.904029,33.186223 52.149066,-3.2818086 Z"
           sodipodi:nodetypes="ccccc" />
        <path
           id="path4266"
           style="font-variation-settings:normal;vector-effect:none;fill:#1c241c;fill-opacity:1;fill-rule:evenodd;stroke:none;stroke-width:13.6553;stroke-linecap:butt;stroke-linejoin:miter;stroke-miterlimit:7.2;stroke-dasharray:none;stroke-dashoffset:3.8766;stroke-opacity:1;paint-order:normal;stop-color:#000000"
           d="M 197.09961,-12.404297 C 196.17349,125.42763 54.329488,106.33595 6.3535156,219.99414 -20.973425,284.7336 9.3562784,359.36829 74.095703,386.69531 c 20.124509,8.49468 41.266977,11.26604 61.652347,9.15821 -11.99594,-1.24491 -23.99476,-4.23747 -35.65235,-9.15821 C 35.356265,359.36829 5.0265759,284.7336 32.353516,219.99414 75.872098,116.89584 196.62125,123.02178 219.375,22.177734 212.5918,10.387797 205.1587,-1.1538421 197.09961,-12.404297 Z"
           transform="scale(0.26458333)" />
      </g>
    </g>
  </g>
</svg>
